# xmcd
#
# Track frame offsets: 
#        150
#        17735
#        35425
#        58897
#        75150
#        88200
#        110287
#        125197
#        144977
#        163297
#        186887
#        210012
#        236585
#        261307
#
# Disc length: 3734 seconds
#
# Revision: 2
# Processed by: cddbd v1.5.2PL0 Copyright (c) Steve Scherf et al.
# Submitted via: ExactAudioCopy v1.3
#
DISCID=bd0e940e
DTITLE=岡崎律子 - Rain or Shine
DYEAR=1997
DGENRE=JPop
TTITLE0=BLUE POINT
TTITLE1=朝～What's goin' on～
TTITLE2=長距離電話
TTITLE3=Rain or Shine～降っても晴れても～
TTITLE4=春の海へ
TTITLE5=まっすぐな心で
TTITLE6=Nowadays
TTITLE7=悲しい自由
TTITLE8=愛してほしくて
TTITLE9=Girlfriend
TTITLE10=最愛
TTITLE11=明日に向かって
TTITLE12=恋心
TTITLE13=A Happy Life
EXTD=YEAR: 1997
EXTT0=
EXTT1=
EXTT2=
EXTT3=
EXTT4=
EXTT5=
EXTT6=
EXTT7=
EXTT8=
EXTT9=
EXTT10=
EXTT11=
EXTT12=
EXTT13=
PLAYORDER=
